<svg width="178" height="31" viewBox="0 0 178 31" fill="none" xmlns="http://www.w3.org/2000/svg">
<path d="M42.9707 24L48.4688 9.68359H50.5098L56.3691 24H54.2109L52.541 19.6641H46.5547L44.9824 24H42.9707ZM47.1016 18.1211H51.9551L50.4609 14.1562C50.0052 12.9518 49.6667 11.9622 49.4453 11.1875C49.263 12.1055 49.0059 13.0169 48.6738 13.9219L47.1016 18.1211ZM57.6582 24V13.6289H59.2402V15.1035C60.002 13.9642 61.1022 13.3945 62.541 13.3945C63.166 13.3945 63.7389 13.5085 64.2598 13.7363C64.7871 13.9577 65.181 14.2507 65.4414 14.6152C65.7018 14.9798 65.8841 15.4128 65.9883 15.9141C66.0534 16.2396 66.0859 16.8092 66.0859 17.623V24H64.3281V17.6914C64.3281 16.9753 64.2598 16.4414 64.123 16.0898C63.9863 15.7318 63.7422 15.4486 63.3906 15.2402C63.0456 15.0254 62.6387 14.918 62.1699 14.918C61.4212 14.918 60.7734 15.1556 60.2266 15.6309C59.6862 16.1061 59.416 17.0078 59.416 18.3359V24H57.6582ZM68.791 24V13.6289H70.373V15.1035C71.1348 13.9642 72.235 13.3945 73.6738 13.3945C74.2988 13.3945 74.8717 13.5085 75.3926 13.7363C75.9199 13.9577 76.3138 14.2507 76.5742 14.6152C76.8346 14.9798 77.0169 15.4128 77.1211 15.9141C77.1862 16.2396 77.2188 16.8092 77.2188 17.623V24H75.4609V17.6914C75.4609 16.9753 75.3926 16.4414 75.2559 16.0898C75.1191 15.7318 74.875 15.4486 74.5234 15.2402C74.1784 15.0254 73.7715 14.918 73.3027 14.918C72.554 14.918 71.9062 15.1556 71.3594 15.6309C70.819 16.1061 70.5488 17.0078 70.5488 18.3359V24H68.791ZM86.6914 22.7207C86.0404 23.2741 85.4121 23.6647 84.8066 23.8926C84.2077 24.1204 83.5632 24.2344 82.873 24.2344C81.7337 24.2344 80.8581 23.9577 80.2461 23.4043C79.6341 22.8444 79.3281 22.1315 79.3281 21.2656C79.3281 20.7578 79.4421 20.2956 79.6699 19.8789C79.9043 19.4557 80.207 19.1172 80.5781 18.8633C80.9557 18.6094 81.3789 18.4173 81.8477 18.2871C82.1927 18.196 82.7135 18.1081 83.4102 18.0234C84.8294 17.8542 85.8743 17.6523 86.5449 17.418C86.5514 17.1771 86.5547 17.0241 86.5547 16.959C86.5547 16.2428 86.3887 15.7383 86.0566 15.4453C85.6074 15.0482 84.9401 14.8496 84.0547 14.8496C83.2279 14.8496 82.6159 14.9961 82.2188 15.2891C81.8281 15.5755 81.5384 16.0866 81.3496 16.8223L79.6309 16.5879C79.7871 15.8522 80.0443 15.2598 80.4023 14.8105C80.7604 14.3548 81.278 14.0065 81.9551 13.7656C82.6322 13.5182 83.4167 13.3945 84.3086 13.3945C85.194 13.3945 85.9134 13.4987 86.4668 13.707C87.0202 13.9154 87.4271 14.179 87.6875 14.498C87.9479 14.8105 88.1302 15.2077 88.2344 15.6895C88.293 15.9889 88.3223 16.5293 88.3223 17.3105V19.6543C88.3223 21.2884 88.3581 22.3236 88.4297 22.7598C88.5078 23.1895 88.6576 23.6029 88.8789 24H87.043C86.8607 23.6354 86.7435 23.209 86.6914 22.7207ZM86.5449 18.7949C85.9069 19.0553 84.9499 19.2767 83.6738 19.459C82.9512 19.5632 82.4401 19.6803 82.1406 19.8105C81.8411 19.9408 81.61 20.1328 81.4473 20.3867C81.2845 20.6341 81.2031 20.9108 81.2031 21.2168C81.2031 21.6855 81.3789 22.0762 81.7305 22.3887C82.0885 22.7012 82.6094 22.8574 83.293 22.8574C83.9701 22.8574 84.5723 22.7109 85.0996 22.418C85.627 22.1185 86.0143 21.7116 86.2617 21.1973C86.4505 20.8001 86.5449 20.2142 86.5449 19.4395V18.7949ZM94.1621 24L99.6602 9.68359H101.701L107.561 24H105.402L103.732 19.6641H97.7461L96.1738 24H94.1621ZM98.293 18.1211H103.146L101.652 14.1562C101.197 12.9518 100.858 11.9622 100.637 11.1875C100.454 12.1055 100.197 13.0169 99.8652 13.9219L98.293 18.1211ZM108.146 20.9043L109.885 20.6309C109.982 21.3275 110.253 21.8613 110.695 22.2324C111.145 22.6035 111.77 22.7891 112.57 22.7891C113.378 22.7891 113.977 22.6263 114.367 22.3008C114.758 21.9688 114.953 21.5814 114.953 21.1387C114.953 20.7415 114.781 20.429 114.436 20.2012C114.195 20.0449 113.596 19.8464 112.639 19.6055C111.35 19.2799 110.454 19 109.953 18.7656C109.458 18.5247 109.081 18.196 108.82 17.7793C108.566 17.3561 108.439 16.8906 108.439 16.3828C108.439 15.9206 108.544 15.4941 108.752 15.1035C108.967 14.7064 109.257 14.3776 109.621 14.1172C109.895 13.9154 110.266 13.7461 110.734 13.6094C111.21 13.4661 111.717 13.3945 112.258 13.3945C113.072 13.3945 113.785 13.5117 114.396 13.7461C115.015 13.9805 115.471 14.2995 115.764 14.7031C116.057 15.1003 116.258 15.6341 116.369 16.3047L114.65 16.5391C114.572 16.0052 114.344 15.5885 113.967 15.2891C113.596 14.9896 113.068 14.8398 112.385 14.8398C111.577 14.8398 111.001 14.9733 110.656 15.2402C110.311 15.5072 110.139 15.8197 110.139 16.1777C110.139 16.4056 110.21 16.6107 110.354 16.793C110.497 16.9818 110.721 17.138 111.027 17.2617C111.203 17.3268 111.721 17.4766 112.58 17.7109C113.824 18.043 114.689 18.3164 115.178 18.5312C115.673 18.7396 116.06 19.0456 116.34 19.4492C116.62 19.8529 116.76 20.3542 116.76 20.9531C116.76 21.5391 116.587 22.0924 116.242 22.6133C115.904 23.1276 115.412 23.528 114.768 23.8145C114.123 24.0944 113.394 24.2344 112.58 24.2344C111.232 24.2344 110.204 23.9544 109.494 23.3945C108.791 22.8346 108.342 22.0046 108.146 20.9043ZM122.688 22.4277L122.941 23.9805C122.447 24.0846 122.004 24.1367 121.613 24.1367C120.975 24.1367 120.48 24.0358 120.129 23.834C119.777 23.6322 119.53 23.3685 119.387 23.043C119.243 22.7109 119.172 22.0176 119.172 20.9629V14.9961H117.883V13.6289H119.172V11.0605L120.92 10.0059V13.6289H122.688V14.9961H120.92V21.0605C120.92 21.5618 120.949 21.8841 121.008 22.0273C121.073 22.1706 121.174 22.2845 121.311 22.3691C121.454 22.4538 121.656 22.4961 121.916 22.4961C122.111 22.4961 122.368 22.4733 122.688 22.4277ZM124.396 24V13.6289H125.979V15.2012C126.382 14.4655 126.753 13.9805 127.092 13.7461C127.437 13.5117 127.814 13.3945 128.225 13.3945C128.817 13.3945 129.419 13.5833 130.031 13.9609L129.426 15.5918C128.996 15.3379 128.566 15.2109 128.137 15.2109C127.753 15.2109 127.408 15.3281 127.102 15.5625C126.796 15.7904 126.577 16.1094 126.447 16.5195C126.252 17.1445 126.154 17.8281 126.154 18.5703V24H124.396ZM130.422 18.8145C130.422 16.8939 130.956 15.4714 132.023 14.5469C132.915 13.7786 134.003 13.3945 135.285 13.3945C136.711 13.3945 137.876 13.8633 138.781 14.8008C139.686 15.7318 140.139 17.0208 140.139 18.668C140.139 20.0026 139.937 21.054 139.533 21.8223C139.136 22.584 138.553 23.1764 137.785 23.5996C137.023 24.0228 136.19 24.2344 135.285 24.2344C133.833 24.2344 132.658 23.7689 131.76 22.8379C130.868 21.9069 130.422 20.5658 130.422 18.8145ZM132.229 18.8145C132.229 20.1426 132.518 21.1387 133.098 21.8027C133.677 22.4603 134.406 22.7891 135.285 22.7891C136.158 22.7891 136.883 22.457 137.463 21.793C138.042 21.1289 138.332 20.1165 138.332 18.7559C138.332 17.4733 138.039 16.5033 137.453 15.8457C136.874 15.1816 136.151 14.8496 135.285 14.8496C134.406 14.8496 133.677 15.1784 133.098 15.8359C132.518 16.4935 132.229 17.4863 132.229 18.8145ZM142.17 24V9.68359H143.928V24H142.17ZM146.008 18.8145C146.008 16.8939 146.542 15.4714 147.609 14.5469C148.501 13.7786 149.589 13.3945 150.871 13.3945C152.297 13.3945 153.462 13.8633 154.367 14.8008C155.272 15.7318 155.725 17.0208 155.725 18.668C155.725 20.0026 155.523 21.054 155.119 21.8223C154.722 22.584 154.139 23.1764 153.371 23.5996C152.609 24.0228 151.776 24.2344 150.871 24.2344C149.419 24.2344 148.244 23.7689 147.346 22.8379C146.454 21.9069 146.008 20.5658 146.008 18.8145ZM147.814 18.8145C147.814 20.1426 148.104 21.1387 148.684 21.8027C149.263 22.4603 149.992 22.7891 150.871 22.7891C151.743 22.7891 152.469 22.457 153.049 21.793C153.628 21.1289 153.918 20.1165 153.918 18.7559C153.918 17.4733 153.625 16.5033 153.039 15.8457C152.46 15.1816 151.737 14.8496 150.871 14.8496C149.992 14.8496 149.263 15.1784 148.684 15.8359C148.104 16.4935 147.814 17.4863 147.814 18.8145ZM157.473 24.8594L159.182 25.1133C159.253 25.6406 159.452 26.0247 159.777 26.2656C160.214 26.5911 160.809 26.7539 161.564 26.7539C162.378 26.7539 163.007 26.5911 163.449 26.2656C163.892 25.9401 164.191 25.4844 164.348 24.8984C164.439 24.5404 164.481 23.7884 164.475 22.6426C163.706 23.5475 162.749 24 161.604 24C160.178 24 159.074 23.4857 158.293 22.457C157.512 21.4284 157.121 20.1947 157.121 18.7559C157.121 17.7663 157.3 16.8548 157.658 16.0215C158.016 15.1816 158.534 14.5339 159.211 14.0781C159.895 13.6224 160.695 13.3945 161.613 13.3945C162.837 13.3945 163.846 13.8893 164.641 14.8789V13.6289H166.262V22.5938C166.262 24.2083 166.096 25.3509 165.764 26.0215C165.438 26.6986 164.917 27.2324 164.201 27.623C163.492 28.0137 162.616 28.209 161.574 28.209C160.337 28.209 159.338 27.929 158.576 27.3691C157.814 26.8158 157.447 25.9792 157.473 24.8594ZM158.928 18.6289C158.928 19.9896 159.198 20.9824 159.738 21.6074C160.279 22.2324 160.956 22.5449 161.77 22.5449C162.577 22.5449 163.254 22.2357 163.801 21.6172C164.348 20.9922 164.621 20.0156 164.621 18.6875C164.621 17.418 164.338 16.4609 163.771 15.8164C163.212 15.1719 162.535 14.8496 161.74 14.8496C160.959 14.8496 160.295 15.1686 159.748 15.8066C159.201 16.4382 158.928 17.3789 158.928 18.6289ZM168.85 27.9941L168.654 26.3438C169.038 26.4479 169.374 26.5 169.66 26.5C170.051 26.5 170.363 26.4349 170.598 26.3047C170.832 26.1745 171.024 25.9922 171.174 25.7578C171.285 25.582 171.464 25.1458 171.711 24.4492C171.743 24.3516 171.796 24.2083 171.867 24.0195L167.932 13.6289H169.826L171.984 19.6348C172.264 20.3965 172.515 21.1973 172.736 22.0371C172.938 21.2298 173.179 20.4421 173.459 19.6738L175.676 13.6289H177.434L173.488 24.1758C173.065 25.3151 172.736 26.0996 172.502 26.5293C172.189 27.1087 171.831 27.5319 171.428 27.7988C171.024 28.0723 170.542 28.209 169.982 28.209C169.644 28.209 169.266 28.1374 168.85 27.9941Z" fill="white"/>
<path fill-rule="evenodd" clip-rule="evenodd" d="M13.7436 0H18.3791L33 30.5532H20.6508C20.594 30.5565 20.5377 30.5564 20.4821 30.5526L20.4989 29.8961H20.6355C20.936 29.8747 21.313 29.7086 21.7356 29.419C22.207 29.0959 22.6957 28.6467 23.1345 28.1774C23.5728 27.7085 23.953 27.2286 24.2084 26.8508C24.3371 26.6605 24.4281 26.505 24.4795 26.3951C24.4841 26.3852 24.4882 26.3761 24.4918 26.3678C23.8416 25.3399 22.9792 24.2191 22.2163 23.2316L22.1619 23.1612C21.7901 22.6801 21.4435 22.2315 21.1646 21.8485C20.9407 21.541 20.747 21.2582 20.6194 21.0259H11.4839C11.0682 21.6415 10.5518 22.3173 10.034 22.995C9.79066 23.3134 9.54704 23.6323 9.31342 23.9455C8.58471 24.9224 7.95993 25.8358 7.66293 26.5726C7.66321 26.573 7.66349 26.5735 7.66377 26.5739C7.72352 26.669 7.81224 26.806 7.92661 26.9708C8.15571 27.301 8.4859 27.7405 8.8905 28.1788C9.7115 29.0683 10.7866 29.8961 11.915 29.8961V30.5532H0L13.7436 0ZM9.93186 29.8961C9.38684 29.5438 8.90073 29.0933 8.49777 28.6567C8.06847 28.1916 7.72004 27.7276 7.47902 27.3802C7.35833 27.2063 7.2641 27.0609 7.19968 26.9583C7.16745 26.9071 7.14265 26.8664 7.12568 26.8383C7.1172 26.8242 7.11067 26.8132 7.10615 26.8055L7.10089 26.7966L7.09894 26.7932C7.09888 26.7931 7.09867 26.7928 7.33693 26.6108L7.09894 26.7932L7.01544 26.6491L7.07126 26.4888C7.37788 25.6087 8.10701 24.5527 8.87878 23.5181C9.12375 23.1897 9.37402 22.8622 9.62078 22.5392C10.1681 21.823 10.6981 21.1293 11.1148 20.4988L11.2007 20.3688H20.9618L21.0409 20.5504C21.119 20.7298 21.3116 21.0261 21.6036 21.427C21.877 21.8024 22.2185 22.2444 22.593 22.7291L22.6444 22.7955C23.429 23.8111 24.3457 25.0016 25.0237 26.0914C25.1161 26.24 25.0844 26.4052 25.0711 26.4644C25.0526 26.5462 25.0195 26.6294 24.9837 26.7059C24.9106 26.8622 24.7978 27.0506 24.6604 27.2538C24.3837 27.6631 23.9821 28.1688 23.5245 28.6581C23.1038 29.1081 22.6288 29.5519 22.1525 29.8961H32.0326L18.0406 0.657058H14.0922L0.939641 29.8961H9.93186ZM24.5171 26.2995C24.517 26.3001 24.5168 26.3009 24.5166 26.3018C24.5179 26.2921 24.5192 26.2904 24.5171 26.2995Z" fill="white"/>
<path fill-rule="evenodd" clip-rule="evenodd" d="M22.9639 12.0723L17.3741 13.7872L16.3759 16.5236L15.8244 16.5291L14.7336 13.7272L9.61091 12.0808L14.7897 10.3273L15.8232 7.42638L16.3757 7.42549L17.4335 10.3801L22.9639 12.0723ZM20.776 12.0731L16.9607 10.9057L16.1013 8.8801L15.266 10.8414L11.6533 12.0646L15.2022 13.2052L16.0892 15.1101L16.9001 13.2622L20.776 12.0731Z" fill="white"/>
</svg>
