<svg width="24" height="24" viewBox="0 0 24 24" fill="none" xmlns="http://www.w3.org/2000/svg">
<path d="M11.3469 1.19421C11.6292 0.677911 12.3708 0.677912 12.6531 1.19421L16.138 7.56606C16.2063 7.69097 16.309 7.79367 16.4339 7.86198L22.8058 11.3469C23.3221 11.6292 23.3221 12.3708 22.8058 12.6531L16.4339 16.138C16.309 16.2063 16.2063 16.309 16.138 16.4339L12.6531 22.8058C12.3708 23.3221 11.6292 23.3221 11.3469 22.8058L7.86198 16.4339C7.79367 16.309 7.69097 16.2063 7.56606 16.138L1.19421 12.6531C0.677911 12.3708 0.677912 11.6292 1.19421 11.3469L7.56606 7.86198C7.69097 7.79367 7.79367 7.69097 7.86198 7.56606L11.3469 1.19421Z" fill="#CCA964"/>
</svg>
